<svg width="764" height="130" viewBox="0 0 764 130" fill="none" xmlns="http://www.w3.org/2000/svg">
<g clip-path="url(#clip0_103_20)">
<path d="M0 58.449V37.5564H17.7145V10.5914H41.5112V37.58H61.4331V58.449H41.6912V93.7538C41.6912 104.29 45.386 107.805 53.8714 107.805C56.5495 107.759 59.2121 107.387 61.801 106.699V126.313C58.6699 127.976 52.7598 129.639 46.3018 129.639C27.6715 129.639 17.3387 120.021 17.3387 100.054V58.449H0Z" fill="#F408F4"/>
<path d="M141.864 65.8473V128.148H116.032V73.4261C116.032 64.3645 114.005 59.9318 108.471 59.9318C101.277 59.9318 97.0343 65.8473 97.0343 78.4158V128.148H71.2023V0.768875H97.0343V56.2287C100.541 44.7665 108.471 35.7049 120.463 35.7049C135.587 35.6971 141.864 47.3555 141.864 65.8473Z" fill="#F408F4"/>
<path d="M223.399 87.038H174.694V88.7719C174.694 99.4967 177.466 109.664 187.791 109.664C197.02 109.664 199.415 102.604 200.519 94.8678L223.399 99.3084C220.628 116.137 208.268 130 186.499 130C163.798 130 148.502 112.803 148.502 83.2251C148.502 50.3132 164.55 34.9674 186.859 34.9674C210.836 34.9674 223.384 53.0905 223.384 81.9306L223.399 87.038ZM175.062 72.312H197.2C197.2 61.038 193.513 54.9342 186.687 54.9342C178.937 54.9342 175.806 60.8497 175.062 72.312Z" fill="#F408F4"/>
<path d="M230.773 128.148V37.5564H255.682V64.3645C260.292 46.7984 270.993 34.787 286.484 34.787H286.672V63.627H283.181C264.551 63.627 256.613 73.4261 256.613 90.6156V128.148H230.773Z" fill="#F408F4"/>
<path d="M363.965 87.038H315.275V88.7719C315.275 99.4967 318.046 109.664 328.371 109.664C337.6 109.664 339.996 102.604 341.099 94.8678L363.98 99.3084C361.209 116.137 348.849 130 327.08 130C304.379 130 289.083 112.803 289.083 83.2251C289.083 50.3132 305.13 34.9674 327.44 34.9674C351.417 34.9674 363.965 53.0905 363.965 81.9306V87.038ZM315.628 72.312H337.765C337.765 61.038 334.078 54.9342 327.252 54.9342C319.502 54.9342 316.371 60.8497 315.628 72.312Z" fill="#F408F4"/>
<path d="M381.475 103.467V55.3108H370.853V47.3398L389.147 38.647L387.385 0.847305H403.112L400.059 41.6439H432.153V54.6832H404.583V100.046C404.583 110.245 409.883 112.897 416.137 112.897C422.235 112.897 426.407 108.362 426.407 99.6693L425.124 80.1967H435.879L435.096 100.987C434.447 119.322 424.818 129.906 408.129 129.906C392.388 129.929 381.475 124.445 381.475 103.467Z" fill="#F408F4"/>
<path d="M436.239 127.85V118.349H447.613L447.746 20.6415L432.451 31.3193L428.779 22.0616L471.003 0V55.0205C476.365 45.3235 485.79 35.4068 497.805 35.4068C512.428 35.4068 521.203 47.481 521.203 63.3132V118.326H531.763V127.827H488.06V118.349H497.805V68.2794C497.805 59.3748 492.772 53.4436 485.625 53.4436C480.592 53.4436 474.901 56.213 471.003 60.5673V118.349H481.226V127.85H436.239Z" fill="#F408F4"/>
<path d="M529.407 82.5582C529.407 54.7302 545.845 35.5872 568.366 35.5872C594.198 35.5872 604.202 50.3917 604.202 74.2734H551.755C551.591 94.0048 559.81 107.036 576.084 107.036C586.605 107.036 595.81 99.5359 596.961 87.1008H603.536C604.319 112.206 591.012 129.929 568.358 129.929C544.037 129.929 529.407 112.583 529.407 82.5582ZM579.215 66.1768C579.215 52.3687 574.284 44.2722 565.908 44.2722C558.511 44.2722 552.264 51.7725 551.935 66.1768H579.215Z" fill="#F408F4"/>
<path d="M689.205 82.5582C689.205 54.7302 705.643 35.5872 728.164 35.5872C753.996 35.5872 764 50.3917 764 74.2734H711.553C711.389 94.0048 719.608 107.036 735.882 107.036C746.403 107.036 755.609 99.5359 756.759 87.1008H763.335C764.117 112.206 750.81 129.929 728.156 129.929C703.835 129.929 689.205 112.583 689.205 82.5582ZM739.013 66.1768C739.013 52.3687 734.082 44.2722 725.706 44.2722C718.309 44.2722 712.062 51.7725 711.733 66.1768H739.013Z" fill="#F408F4"/>
<path d="M611.302 127.85V118.436H626.175V53.5299L609.04 63.729L604.938 54.7145L652.993 32.7471V71.5746C663.795 43.927 671.248 35.2969 687.263 35.2969V64.3253H675.749C668.484 64.3253 660.289 66.6789 653.048 77.0742V118.451H678.011V127.866L611.302 127.85Z" fill="#F408F4"/>
</g>
<defs>
<clipPath id="clip0_103_20">
<rect width="764" height="130" fill="white"/>
</clipPath>
</defs>
</svg>
