<svg width="129" height="22" viewBox="0 0 129 22" fill="none" xmlns="http://www.w3.org/2000/svg">
<g clip-path="url(#clip0_272_428)">
<path d="M0 9.89137V6.3557H2.99105V1.7924H7.00909V6.35969H10.3729V9.89137H7.03949V15.866C7.03949 17.6491 7.66334 18.2439 9.09608 18.2439C9.54827 18.2361 9.99785 18.1732 10.435 18.0567V21.376C9.9063 21.6575 8.9084 21.9389 7.81798 21.9389C4.67228 21.9389 2.92761 20.3112 2.92761 16.9322V9.89137H0Z" fill="#F408F4"/>
<path d="M23.9527 11.1434V21.6867H19.591V12.4259C19.591 10.8925 19.2487 10.1423 18.3142 10.1423C17.0995 10.1423 16.3832 11.1434 16.3832 13.2704V21.6867H12.0215V0.130116H16.3832V9.51563C16.9753 7.57586 18.3142 6.04237 20.3391 6.04237C22.8926 6.04104 23.9527 8.014 23.9527 11.1434Z" fill="#F408F4"/>
<path d="M37.7204 14.7295H29.4967V15.0229C29.4967 16.8379 29.9646 18.5586 31.7079 18.5586C33.2662 18.5586 33.6707 17.3637 33.8571 16.0546L37.7204 16.806C37.2526 19.654 35.1656 22 31.4899 22C27.6569 22 25.0742 19.0897 25.0742 14.0842C25.0742 8.51454 27.7837 5.91756 31.5507 5.91756C35.5991 5.91756 37.7178 8.98455 37.7178 13.8652L37.7204 14.7295ZM29.5588 12.2374H33.2966C33.2966 10.3295 32.6741 9.29656 31.5216 9.29656C30.2131 9.29656 29.6844 10.2976 29.5588 12.2374Z" fill="#F408F4"/>
<path d="M38.9648 21.6867V6.3557H43.1706V10.8925C43.9491 7.91974 45.7558 5.88702 48.3715 5.88702H48.4033V10.7677H47.8138C44.6681 10.7677 43.3278 12.426 43.3278 15.3349V21.6867H38.9648Z" fill="#F408F4"/>
<path d="M61.4541 14.7295H53.233V15.0229C53.233 16.8379 53.7009 18.5586 55.4443 18.5586C57.0026 18.5586 57.407 17.3637 57.5934 16.0546L61.4568 16.806C60.9889 19.654 58.9019 22 55.2262 22C51.3932 22 48.8105 19.0897 48.8105 14.0842C48.8105 8.51454 51.5201 5.91756 55.287 5.91756C59.3354 5.91756 61.4541 8.98455 61.4541 13.8652V14.7295ZM53.2925 12.2374H57.0303C57.0303 10.3295 56.4078 9.29656 55.2553 9.29656C53.9468 9.29656 53.4181 10.2976 53.2925 12.2374Z" fill="#F408F4"/>
<path d="M64.4108 17.5097V9.36029H62.6172V8.01135L65.7061 6.54026L65.4087 0.143391H68.064L67.5485 7.04743H72.9676V9.25408H68.3125V16.9308C68.3125 18.6569 69.2073 19.1056 70.2633 19.1056C71.293 19.1056 71.9974 18.3382 71.9974 16.8671L71.7807 13.5718H73.5967L73.4646 17.0902C73.3549 20.193 71.7291 21.9841 68.9112 21.9841C66.2532 21.9881 64.4108 21.06 64.4108 17.5097Z" fill="#F408F4"/>
<path d="M73.658 21.6362V20.0284H75.5785L75.601 3.49318L73.0183 5.30018L72.3984 3.73349L79.5278 0V9.31117C80.4332 7.67013 82.0245 5.99191 84.0534 5.99191C86.5223 5.99191 88.004 8.03525 88.004 10.7145V20.0244H89.787V21.6322H82.4078V20.0284H84.0534V11.555C84.0534 10.048 83.2035 9.0443 81.9968 9.0443C81.1469 9.0443 80.186 9.51298 79.5278 10.2499V20.0284H81.254V21.6362H73.658Z" fill="#F408F4"/>
<path d="M89.3887 13.9714C89.3887 9.26204 92.1643 6.02245 95.9669 6.02245C100.329 6.02245 102.018 8.52782 102.018 12.5693H93.1622C93.1344 15.9085 94.5222 18.1138 97.2701 18.1138C99.0465 18.1138 100.601 16.8445 100.795 14.7401H101.905C102.038 18.9888 99.7906 21.988 95.9656 21.988C91.859 21.988 89.3887 19.0525 89.3887 13.9714ZM97.7988 11.1992C97.7988 8.8624 96.9661 7.49222 95.5519 7.49222C94.3028 7.49222 93.2481 8.7615 93.1926 11.1992H97.7988Z" fill="#F408F4"/>
<path d="M116.371 13.9714C116.371 9.26204 119.147 6.02245 122.949 6.02245C127.311 6.02245 129 8.52782 129 12.5693H120.145C120.117 15.9085 121.505 18.1138 124.253 18.1138C126.029 18.1138 127.583 16.8445 127.778 14.7401H128.888C129.02 18.9888 126.773 21.988 122.948 21.988C118.841 21.988 116.371 19.0525 116.371 13.9714ZM124.781 11.1992C124.781 8.8624 123.949 7.49222 122.534 7.49222C121.285 7.49222 120.231 8.7615 120.175 11.1992H124.781Z" fill="#F408F4"/>
<path d="M103.217 21.6362V20.043H105.728V9.0589L102.835 10.7849L102.143 9.25938L110.257 5.54182V12.1126C112.081 7.4338 113.339 5.97332 116.043 5.97332V10.8858H114.099C112.872 10.8858 111.488 11.2841 110.266 13.0433V20.0456H114.481V21.6389L103.217 21.6362Z" fill="#F408F4"/>
</g>
<defs>
<clipPath id="clip0_272_428">
<rect width="129" height="22" fill="white"/>
</clipPath>
</defs>
</svg>
